<svg width="372" height="116" viewBox="0 0 372 116" fill="none" xmlns="http://www.w3.org/2000/svg">
<path d="M-9.78261e-06 35.04L12.144 16.896L0.95999 3.8147e-05H12.768L18.432 8.92804L24.144 3.8147e-05H35.616L24.384 16.704L36.576 35.04H24.624L18.192 24.912L11.76 35.04H-9.78261e-06ZM39.6834 35.04V3.8147e-05H50.5314V35.04H39.6834ZM91.075 3.8147e-05L77.779 35.04H66.931L54.115 3.8147e-05H65.491L71.011 15.744L72.595 21.072L74.323 15.744L79.747 3.8147e-05H91.075ZM1.00799 57.52C1.00799 47.728 7.87199 39.52 19.536 39.52C30.096 39.52 35.664 44.896 37.344 52.528L26.4 55.024C25.776 50.944 23.568 48.448 19.44 48.448C14.544 48.448 11.952 51.952 11.952 57.52C11.952 62.992 14.256 66.448 19.296 66.448C23.664 66.448 25.872 63.712 26.4 59.584L37.488 61.552C35.904 69.664 29.568 75.52 19.344 75.52C6.23999 75.52 1.00799 67.408 1.00799 57.52ZM58.796 75.52C46.172 75.52 40.508 67.408 40.508 57.52C40.508 47.728 47.372 39.52 58.94 39.52C71.132 39.52 77.372 47.632 77.372 57.52C77.372 67.408 70.748 75.52 58.796 75.52ZM58.892 66.304C63.884 66.304 66.476 62.944 66.476 57.52C66.476 52 63.884 48.64 58.988 48.64C54.092 48.64 51.452 52.096 51.452 57.52C51.452 62.848 53.756 66.304 58.892 66.304ZM81.6677 75.04V40H92.3237V65.152H107.78V75.04H81.6677ZM112.215 75.04V40H122.871V65.152H138.327V75.04H112.215ZM142.761 75.04V40H170.073V48.976H153.081V56.368H166.377V58.384H153.081V65.824H170.361V75.04H142.761ZM172.586 57.52C172.586 47.728 179.45 39.52 191.114 39.52C201.674 39.52 207.242 44.896 208.922 52.528L197.978 55.024C197.354 50.944 195.146 48.448 191.018 48.448C186.122 48.448 183.53 51.952 183.53 57.52C183.53 62.992 185.834 66.448 190.874 66.448C195.242 66.448 197.45 63.712 197.978 59.584L209.066 61.552C207.482 69.664 201.146 75.52 190.922 75.52C177.818 75.52 172.586 67.408 172.586 57.52ZM211.528 49.216V40H240.952V49.216H231.592V75.04H220.792V49.216H211.528ZM245.558 75.04V40H256.406V75.04H245.558ZM279.046 75.52C266.422 75.52 260.758 67.408 260.758 57.52C260.758 47.728 267.622 39.52 279.19 39.52C291.382 39.52 297.622 47.632 297.622 57.52C297.622 67.408 290.998 75.52 279.046 75.52ZM279.142 66.304C284.134 66.304 286.726 62.944 286.726 57.52C286.726 52 284.134 48.64 279.238 48.64C274.342 48.64 271.702 52.096 271.702 57.52C271.702 62.848 274.006 66.304 279.142 66.304ZM301.918 40H314.158L322.366 64.864L325.102 73.696L325.15 73.744L324.958 64.048V40H335.71V75.04H323.422L315.646 51.04L312.43 41.104L312.622 52.144V75.04H301.918V40ZM339.031 68.752L347.575 61.408C349.639 64.432 352.663 66.208 356.647 66.208C359.959 66.208 361.399 64.672 361.399 62.56C361.399 59.968 360.151 58.768 354.055 58C343.495 56.896 340.087 54.688 340.087 49.648C340.087 44.032 344.935 39.376 354.295 39.376C361.351 39.376 367.207 41.728 371.431 46.096L363.223 53.584C361.303 50.464 358.183 48.688 354.103 48.688C350.599 48.688 349.207 50.32 349.207 52.24C349.207 54.736 350.503 56.032 355.927 56.656C367.831 57.904 370.807 60.784 370.759 65.488C370.711 71.104 365.863 75.568 356.071 75.568C348.103 75.568 342.727 72.736 339.031 68.752ZM1.24799 105.488C6.28799 102.992 9.83999 101.072 12.336 99.488C17.712 96.128 18.96 94.16 18.96 92.048C18.96 89.744 17.376 88.496 14.928 88.496C12.288 88.496 10.512 90.368 9.64799 93.632L0.28799 88.976C2.73599 83.12 8.01599 79.52 15.6 79.52C24.528 79.52 29.136 83.936 29.136 89.792C29.136 95.744 24.768 98.72 15.36 101.888C12.384 102.896 8.25599 104.096 4.03199 105.344H28.944V115.04H1.24799V105.488ZM32.1429 108.704L41.2149 102.272C42.4629 104.864 44.4309 105.968 47.4069 105.968C50.7669 105.968 52.2069 104.24 52.2069 102.08C52.2069 99.44 50.6709 98.192 46.8309 98.192H42.3669V96.224H46.6869C50.0469 96.224 51.7749 95.024 51.7749 92.24C51.7749 89.888 50.0949 88.544 47.1669 88.544C44.4309 88.544 42.2709 90.08 41.2629 92.672L32.3349 87.008C35.5989 82.208 40.7829 79.52 47.9349 79.52C56.4309 79.52 61.6149 83.12 61.6149 88.544C61.6149 93.776 56.8629 96.32 50.5269 97.04C57.7749 97.52 62.2389 99.632 62.2389 105.392C62.2389 111.248 57.2469 115.52 47.6469 115.52C40.5909 115.52 35.6469 113.408 32.1429 108.704ZM66.3362 105.104V99.248H78.9122V105.104H66.3362ZM83.373 105.488C88.413 102.992 91.965 101.072 94.461 99.488C99.837 96.128 101.085 94.16 101.085 92.048C101.085 89.744 99.501 88.496 97.053 88.496C94.413 88.496 92.637 90.368 91.773 93.632L82.413 88.976C84.861 83.12 90.141 79.52 97.725 79.52C106.653 79.52 111.261 83.936 111.261 89.792C111.261 95.744 106.893 98.72 97.485 101.888C94.509 102.896 90.381 104.096 86.157 105.344H111.069V115.04H83.373V105.488ZM113.949 104.528L129.453 80H141.021L141.309 80.576L123.693 104.864H131.853V96.176H141.933V104.864H146.061V106.784H141.933V115.04H131.853V106.784H113.949V104.528Z" fill="black"/>
</svg>
