<svg width="33" height="10" viewBox="0 0 33 10" fill="none" xmlns="http://www.w3.org/2000/svg">
<path d="M4.10378e-05 4.91999C4.10378e-05 2.50799 1.59604 0.419988 4.34404 0.419988C6.76804 0.419988 8.13604 1.82399 8.53204 3.77999L7.09204 4.13999C6.84004 2.74799 6.01204 1.77599 4.33204 1.77599C2.48404 1.77599 1.46404 3.21599 1.46404 4.91999C1.46404 6.63599 2.26804 8.06399 4.30804 8.06399C6.02404 8.06399 6.90004 6.95999 7.10404 5.54399L8.55604 5.81999C8.19604 7.87199 6.81604 9.41999 4.30804 9.41999C1.26004 9.41999 4.10378e-05 7.36799 4.10378e-05 4.91999ZM11.1153 7.87199C11.1153 7.18799 11.4153 6.75599 11.9433 6.43199C12.5313 6.04799 13.3833 5.89199 14.5593 5.62799C15.4713 5.43599 16.0113 5.24399 15.9993 4.75199C15.9993 4.15199 15.6033 3.64799 14.5113 3.64799C13.4793 3.64799 12.8433 4.12799 12.4593 5.05199L11.1633 4.46399C11.8353 3.15599 12.9873 2.44799 14.5593 2.44799C16.3593 2.44799 17.3793 3.29999 17.3793 4.91999V7.47599C17.3793 8.02799 17.5473 8.18399 17.9313 8.18399C18.1113 8.18399 18.2433 8.14799 18.3513 8.09999V9.21599C18.1713 9.32399 17.7993 9.40799 17.4153 9.40799C16.4433 9.40799 15.9633 8.96399 15.9873 7.78799L15.9993 7.10399C15.5433 8.43599 14.4393 9.44399 13.1073 9.44399C11.7753 9.44399 11.1153 8.79599 11.1153 7.87199ZM16.0233 6.08399V5.39999C15.8073 5.73599 15.3033 5.90399 14.4753 6.07199C13.2993 6.32399 12.5793 6.57599 12.5793 7.36799C12.5793 7.91999 13.0113 8.27999 13.8633 8.27999C14.9913 8.27999 15.8673 7.48799 16.0233 6.08399ZM24.5113 2.48399C25.0153 2.48399 25.4593 2.61599 25.7713 2.81999L25.2913 4.23599C24.9073 3.94799 24.5353 3.81599 24.0073 3.81599C23.2153 3.81599 22.6153 4.36799 22.5673 5.61599V9.29999H21.1153V2.57999H22.5553V4.58399C22.7953 3.16799 23.3713 2.48399 24.5113 2.48399ZM32.8666 7.91999V9.19199C32.5426 9.32399 32.1586 9.41999 31.7386 9.41999C30.2866 9.41999 29.7226 8.71199 29.7226 7.22399V3.86399H28.3066V2.57999H29.7346V0.803988L31.0906 -1.26362e-05V2.57999H32.8666V3.85199H31.0906V6.99599C31.0906 7.81199 31.4146 8.11199 32.0146 8.11199C32.3506 8.11199 32.5786 8.05199 32.8666 7.91999Z" fill="white"/>
</svg>
