<svg width="29" height="23" viewBox="0 0 29 23" fill="none" xmlns="http://www.w3.org/2000/svg">
<path d="M16.3069 17.1962L16.2913 16.5513L16.3069 17.1962ZM10.4103 7.2791L10.3114 7.91244C10.534 7.94672 10.758 7.91218 10.9335 7.81648C11.109 7.72079 11.2216 7.57186 11.2462 7.40278L10.4103 7.2791ZM21.2175 14.5191L22.0331 14.7279L21.2175 14.5191ZM16.3069 17.1962L16.2913 16.5513C14.3166 16.4544 12.2607 16.4384 10.2851 16.0722C8.3518 15.7139 6.59804 15.0343 5.25232 13.652L4.59382 14.011L3.93532 14.37C5.61824 16.0986 7.80987 16.9179 10.0203 17.3275C12.1885 17.7294 14.4749 17.7506 16.3225 17.8412L16.3069 17.1962ZM4.59382 14.011L5.25232 13.652C3.94268 12.3068 3.79765 10.648 4.65596 9.44616C5.49063 8.27737 7.34417 7.45557 10.3114 7.91244L10.4103 7.2791L10.5092 6.64576C6.92829 6.09439 4.35927 7.08314 3.16558 8.75466C1.99551 10.3931 2.21632 12.6044 3.93532 14.37L4.59382 14.011ZM16.3069 17.1962L16.3225 17.8412C16.9874 17.8738 17.7044 17.9073 18.3626 17.8698C19.0211 17.8323 19.7089 17.7203 20.2751 17.4116L19.7519 16.8742L19.2287 16.3369C18.9869 16.4687 18.6265 16.5508 18.1017 16.5807C17.5766 16.6106 16.9753 16.5848 16.2913 16.5513L16.3069 17.1962ZM21.2175 14.5191L22.0331 14.7279C22.4842 13.3841 23.1582 11.7491 23.3116 10.0815C23.4681 8.38148 23.0978 6.56929 21.4149 4.8407L20.7564 5.19969L20.0979 5.55869C21.4436 6.94093 21.7705 8.39843 21.6337 9.88535C21.4938 11.4048 20.884 12.874 20.4019 14.3103L21.2175 14.5191ZM20.7564 5.19969L21.4149 4.8407C19.6959 3.07505 16.9508 2.23994 14.508 2.57112C12.0159 2.90898 9.9707 4.43576 9.57436 7.15542L10.4103 7.2791L11.2462 7.40278C11.5747 5.14924 13.1882 4.0809 14.9307 3.84466C16.7227 3.60172 18.7882 4.21351 20.0979 5.55869L20.7564 5.19969ZM21.2175 14.5191L20.4019 14.3103C20.2349 14.8078 20.0834 15.244 19.8844 15.6089C19.6855 15.9735 19.4706 16.205 19.2287 16.3369L19.7519 16.8742L20.2751 17.4116C20.8414 17.1029 21.1946 16.6474 21.4442 16.1898C21.6936 15.7325 21.8708 15.2115 22.0331 14.7279L21.2175 14.5191Z" fill="white"/>
</svg>
