<svg width="367" height="50" viewBox="0 0 367 50" fill="none" xmlns="http://www.w3.org/2000/svg">
<rect width="367" height="50" rx="2" fill="#D9D9D9"/>
<circle cx="22.8083" cy="24.8083" r="6.80834" stroke="black" stroke-width="1.5"/>
<path d="M27.825 29.825L30.3333 32.3334" stroke="black" stroke-width="1.5" stroke-linecap="round"/>
<path d="M285.12 28.32L286.116 27.504C286.872 28.596 287.76 29.076 289.068 29.076C290.412 29.076 291.132 28.368 291.132 27.432C291.144 26.424 290.328 26.004 288.564 25.752C286.308 25.44 285.348 24.912 285.348 23.508C285.348 22.2 286.416 21.096 288.492 21.096C290.28 21.096 291.396 21.756 292.272 22.956L291.264 23.748C290.616 22.68 289.812 22.164 288.42 22.164C287.04 22.164 286.428 22.884 286.428 23.724C286.428 24.66 287.064 25.152 288.816 25.404C291.108 25.728 292.224 26.208 292.212 27.66C292.212 29.028 291.144 30.132 288.972 30.132C287.16 30.132 285.972 29.448 285.12 28.32ZM295.096 26.676C295.096 24.768 296.368 23.148 298.552 23.148C300.724 23.148 301.828 24.6 301.828 26.484C301.828 26.58 301.828 26.676 301.816 26.796H296.236C296.272 28.176 297.04 29.1 298.54 29.1C299.716 29.1 300.352 28.56 300.664 27.672L301.732 28.068C301.3 29.256 300.28 30.12 298.576 30.12C296.224 30.12 295.096 28.62 295.096 26.676ZM298.552 24.168C297.136 24.168 296.332 25.092 296.236 26.4H300.688C300.676 25.068 299.98 24.168 298.552 24.168ZM304.548 28.548C304.548 27.888 304.836 27.456 305.328 27.132C305.904 26.748 306.756 26.568 307.836 26.34C308.892 26.112 309.6 25.932 309.588 25.368C309.588 24.708 309.156 24.12 307.908 24.12C306.816 24.12 306.108 24.588 305.652 25.596L304.632 25.116C305.292 23.832 306.408 23.148 307.944 23.148C309.756 23.148 310.692 24.024 310.692 25.524V28.368C310.692 28.944 310.884 29.112 311.28 29.112C311.472 29.112 311.604 29.076 311.712 29.016V29.94C311.544 30.036 311.232 30.108 310.908 30.108C310.008 30.108 309.576 29.676 309.588 28.608V27.816C309.108 29.16 307.92 30.132 306.576 30.132C305.16 30.132 304.548 29.448 304.548 28.548ZM309.612 26.772V26.016C309.36 26.364 308.712 26.544 307.8 26.748C306.492 27.012 305.724 27.3 305.712 28.176C305.724 28.776 306.192 29.196 307.164 29.196C308.34 29.196 309.432 28.368 309.612 26.772ZM317.741 23.184C318.293 23.184 318.761 23.34 319.085 23.568L318.665 24.672C318.281 24.372 317.897 24.24 317.357 24.24C316.505 24.24 315.785 24.804 315.689 26.316V30H314.525V23.28H315.677V25.284C315.941 23.844 316.601 23.184 317.741 23.184ZM321.182 26.64C321.182 24.732 322.466 23.148 324.638 23.148C326.594 23.148 327.638 24.288 327.926 25.836L326.774 26.076C326.606 24.936 325.958 24.168 324.626 24.168C323.162 24.168 322.334 25.224 322.334 26.64C322.334 28.08 323.114 29.088 324.614 29.088C325.934 29.088 326.606 28.32 326.798 27.168L327.95 27.42C327.662 28.944 326.594 30.12 324.614 30.12C322.37 30.12 321.182 28.584 321.182 26.64ZM330.958 20.592H332.122V25.32C332.542 23.868 333.502 23.148 334.738 23.148C336.394 23.148 337.246 24.252 337.246 25.908V30H336.106V26.22C336.106 24.948 335.614 24.12 334.234 24.12C333.082 24.12 332.29 24.864 332.122 26.448V30H330.958V20.592Z" fill="black" fill-opacity="0.66"/>
</svg>
