<svg width="265" height="40" viewBox="0 0 265 40" fill="none" xmlns="http://www.w3.org/2000/svg">
<rect width="265" height="40" fill="#D9D9D9"/>
<path d="M198 20H245.5M245.5 20L239.5 14M245.5 20L239.5 26" stroke="black" stroke-width="1.5" stroke-linecap="round" stroke-linejoin="round"/>
<path d="M27.544 19.496C27.544 15.768 29.72 13.16 33.544 13.16C36.2 13.16 37.848 14.328 38.904 16.2L37.128 17.352C36.424 15.752 35.336 14.968 33.448 14.968C31.112 14.968 29.496 16.584 29.496 19.272C29.496 21.752 30.856 23.4 33.192 23.4C35.272 23.4 36.488 22.104 36.904 19.96V19.72H32.904V19.128H38.856V25H36.904V21.416L36.92 21.128C36.376 23.624 35.08 25.16 32.664 25.16C29.288 25.16 27.544 22.52 27.544 19.496ZM44.793 25.16C41.753 25.16 40.105 23.128 40.105 20.52C40.105 17.96 41.817 15.864 44.793 15.864C47.769 15.864 49.465 17.928 49.465 20.52C49.465 23.08 47.801 25.16 44.793 25.16ZM44.793 23.448C46.649 23.448 47.529 22.216 47.529 20.52C47.529 18.792 46.617 17.576 44.793 17.576C42.969 17.576 42.041 18.824 42.041 20.52C42.041 22.232 42.921 23.448 44.793 23.448ZM53.9778 15.08V13.32H63.2098V15.08H59.5458V25H57.5938V15.08H53.9778ZM66.8711 25.16C63.8311 25.16 62.1831 23.128 62.1831 20.52C62.1831 17.96 63.8951 15.864 66.8711 15.864C69.8471 15.864 71.5431 17.928 71.5431 20.52C71.5431 23.08 69.8791 25.16 66.8711 25.16ZM66.8711 23.448C68.7271 23.448 69.6071 22.216 69.6071 20.52C69.6071 18.792 68.6951 17.576 66.8711 17.576C65.0471 17.576 64.1191 18.824 64.1191 20.52C64.1191 22.232 64.9991 23.448 66.8711 23.448ZM75.7519 22.792L77.4319 21.432C78.4079 22.792 79.4639 23.4 81.1439 23.4C82.7599 23.4 83.6239 22.552 83.6239 21.416C83.6239 20.152 82.6639 19.64 80.4719 19.352C77.3359 18.952 76.0719 18.248 76.0719 16.408C76.0719 14.616 77.5599 13.128 80.3759 13.128C82.7759 13.128 84.3279 13.96 85.5759 15.544L83.8799 16.904C83.0479 15.56 82.0239 14.904 80.2639 14.904C78.5999 14.904 77.8479 15.784 77.8319 16.808C77.8319 17.976 78.6319 18.584 80.8719 18.888C83.9919 19.272 85.4159 19.944 85.4159 21.864C85.3999 23.72 83.9279 25.176 80.9519 25.176C78.5039 25.176 76.8879 24.248 75.7519 22.792ZM86.7706 12.456H88.7066V18.776C89.2186 16.856 90.4186 15.864 92.0666 15.864C94.1466 15.864 95.3306 17.288 95.3306 19.464V25H93.4426V20.024C93.4426 18.456 92.8186 17.464 91.1706 17.464C89.6986 17.464 88.8346 18.488 88.7066 20.344V25H86.7706V12.456ZM101.324 25.16C98.2843 25.16 96.6363 23.128 96.6363 20.52C96.6363 17.96 98.3483 15.864 101.324 15.864C104.3 15.864 105.996 17.928 105.996 20.52C105.996 23.08 104.332 25.16 101.324 25.16ZM101.324 23.448C103.18 23.448 104.06 22.216 104.06 20.52C104.06 18.792 103.148 17.576 101.324 17.576C99.5003 17.576 98.5723 18.824 98.5723 20.52C98.5723 22.232 99.4523 23.448 101.324 23.448ZM112.629 25.112C110.789 25.112 109.733 24.088 109.253 22.424L109.285 22.856V28.456H107.349V16.04H109.269V18.232L109.237 18.68C109.781 16.856 111.077 15.928 112.757 15.928C114.757 15.928 116.645 17.352 116.645 20.456C116.645 23.464 114.757 25.112 112.629 25.112ZM114.725 20.504C114.725 18.696 113.685 17.576 111.973 17.576C110.133 17.576 109.173 18.856 109.173 20.52C109.173 22.216 110.117 23.432 112.005 23.432C113.765 23.432 114.725 22.264 114.725 20.504Z" fill="black"/>
</svg>
